<svg width="900" height="200" viewBox="0 0 900 200" xmlns="http://www.w3.org/2000/svg">
  <defs>
    <style>
      .letter {
        fill: none;
        stroke: #009dff;
        stroke-width: 2.5;
        stroke-linecap: round;
        stroke-linejoin: round;
	stroke-dasharray: 2000 2000;
	stroke-dashoffset: 2000;
      }
      body {
      	background-color: black;
	border-color: black;
      }

      /* Each path gets stroke-dasharray/offset set individually via animate */
    </style>

    <!-- Wave gradient -->
    <linearGradient id="waveGrad" x1="0%" y1="0%" x2="100%" y2="100%">
      <stop offset="0%" style="stop-color:#199f9d;stop-opacity:1" />
      <stop offset="100%" style="stop-color:#000000;stop-opacity:1" />
    </linearGradient>

    <!-- Clip the wave shape -->
    <clipPath id="waveClip">
      <path d="M0,0 L900,0 L900,160 Q675,200 450,160 Q225,120 0,160 Z"/>
    </clipPath>
  </defs>

  <!-- Wave background -->
  <rect width="900" height="200" fill="url(#waveGrad)"/>
  <!-- Bottom wave cutout -->
  <path fill="#00000099">
  <animate attributeName="d" dur="4s" repeatCount="indefinite"
    values="
    M0,200 L900,200 L900,160 Q675,200 450,160 Q225,120 0,160 Z;
    M0,200 L900,200 L900,150 Q675,180 450,170 Q225,140 0,150 Z;
    M0,200 L900,200 L900,160 Q675,200 450,160 Q225,120 0,160 Z
    " />
</path>

  <!-- Centered text group: original SVG is 1993x291, we scale and center it -->
  <!-- Scale factor: fit width 900 => 900/1993 = 0.4515, height 291*0.4515 = 131, center vertically in 200px -->
  <g transform="translate(0, 34) scale(0.4515)">

    <!-- All paths from original SVG -->
    <g fill="none" stroke-linecap="round" stroke-linejoin="round">

      <!-- A -->
      <path class="letter" d="M 0.6 207.9 L 20.7 176.4 A 31.193 31.193 0 0 1 14.495 171.464 A 37.416 37.416 0 0 1 12.45 169.2 A 32.067 32.067 0 0 1 10.399 166.476 Q 8.466 163.575 7.95 161.1 A 5.024 5.024 0 0 1 7.871 160.602 Q 7.554 157.587 11.754 157.503 A 12.232 12.232 0 0 1 12 157.5 L 32.7 157.5 L 122.1 17.1 Q 123.54 14.797 126.774 15.671 A 9.069 9.069 0 0 1 127.05 15.75 A 19.672 19.672 0 0 1 130.648 17.272 Q 132.25 18.135 133.882 19.338 A 32.567 32.567 0 0 1 134.1 19.5 Q 138.3 22.5 141.6 26.55 A 19.024 19.024 0 0 1 143.062 28.589 Q 144.823 31.451 144.6 33.9 L 127.2 224.1 A 6.203 6.203 0 0 1 126.935 225.533 Q 126.156 227.938 123.3 227.7 A 11.447 11.447 0 0 1 120.251 226.986 Q 118.947 226.499 117.56 225.695 A 26.133 26.133 0 0 1 115.35 224.25 Q 111 221.1 107.7 217.05 A 19.024 19.024 0 0 1 106.238 215.012 Q 104.478 212.15 104.7 209.7 L 107.7 178.5 L 51.9 178.5 L 21.6 225.9 Q 19.8 228.6 15.9 227.1 A 22.529 22.529 0 0 1 12.304 225.31 Q 10.649 224.304 8.943 222.945 A 41.223 41.223 0 0 1 7.8 222 Q 3.6 218.4 1.35 214.35 Q -0.619 210.807 0.284 208.526 A 3.854 3.854 0 0 1 0.6 207.9 Z M 65.1 157.5 L 93.9 157.5 A 10.682 10.682 0 0 1 97.286 158.085 Q 99.403 158.792 101.7 160.35 A 30.816 30.816 0 0 1 106.159 163.999 A 25.795 25.795 0 0 1 108.6 166.8 L 117.3 75.9 L 65.1 157.5 Z">
        <animate attributeName="stroke-dasharray" from="2000 2000" to="2000 0" dur="3s" begin="0s" fill="freeze" calcMode="ease-in-out"/>
        <animate attributeName="stroke-dashoffset" from="2000" to="0" dur="3s" begin="0s" fill="freeze" calcMode="ease-in-out"/>
        <animate attributeName="fill" from="transparent" to="#00e1ff" dur="1s" begin="2.5s" fill="freeze"/>
      </path>

      <!-- d -->
      <path class="letter" d="M 258.9 119.4 L 301.5 2.1 A 3.221 3.221 0 0 1 303.758 0.157 A 5.331 5.331 0 0 1 305.1 0 A 9.29 9.29 0 0 1 308.01 0.506 Q 310.48 1.321 313.35 3.45 A 36.942 36.942 0 0 1 319.7 9.39 A 33.481 33.481 0 0 1 321.15 11.25 A 16.065 16.065 0 0 1 322.328 13.119 Q 323.431 15.192 323.431 17 A 5.518 5.518 0 0 1 323.1 18.9 L 268.8 168.3 A 103.634 103.634 0 0 0 264.226 184.176 A 81.745 81.745 0 0 0 262.65 197.55 Q 262.2 211.5 265.8 220.8 Q 266.775 223.238 266.364 224.883 A 3.492 3.492 0 0 1 266.1 225.6 A 1.894 1.894 0 0 1 264.844 227.125 Q 264.156 227.4 263.1 227.4 A 9.355 9.355 0 0 1 260.386 226.954 Q 257.913 226.2 254.824 224.173 A 42.499 42.499 0 0 1 253.2 223.05 A 28.71 28.71 0 0 1 248.639 218.986 A 21.398 21.398 0 0 1 244.8 213 A 78.515 78.515 0 0 1 240.514 187.225 A 87.211 87.211 0 0 1 241.2 176.4 A 225.853 225.853 0 0 1 229.049 193.297 Q 217.467 207.835 205.95 216.3 A 95.732 95.732 0 0 1 196.399 222.536 Q 185.07 228.937 175.671 229.19 A 28.628 28.628 0 0 1 174.9 229.2 A 23.649 23.649 0 0 1 165.581 227.42 Q 160.181 225.132 156.3 219.9 A 29.968 29.968 0 0 1 151.928 211.129 Q 149.547 203.715 149.547 193.362 A 91.444 91.444 0 0 1 149.55 192.6 Q 149.657 179.762 154.419 162.802 A 219.567 219.567 0 0 1 159 148.5 A 131.777 131.777 0 0 1 167.785 129.938 A 156.697 156.697 0 0 1 172.95 121.5 Q 181.8 108 193.2 96.75 A 106.673 106.673 0 0 1 209.584 83.409 A 93.162 93.162 0 0 1 217.5 78.75 A 60.576 60.576 0 0 1 231.61 73.386 A 50.519 50.519 0 0 1 243.3 72 A 12.275 12.275 0 0 1 248.433 73.171 Q 250.367 74.053 252.3 75.6 A 33.952 33.952 0 0 1 258.122 81.507 A 30.62 30.62 0 0 1 259.65 83.7 Q 262.361 87.981 261.679 90.633 A 3.987 3.987 0 0 1 261.6 90.9 A 3.242 3.242 0 0 1 259.333 92.805 Q 258.71 92.974 257.94 92.997 A 8.215 8.215 0 0 1 257.7 93 A 50.443 50.443 0 0 0 233.111 99.476 A 59.405 59.405 0 0 0 232.35 99.9 A 90.671 90.671 0 0 0 212.744 115.026 A 103.843 103.843 0 0 0 210 117.9 Q 199.8 129 192.15 141.45 Q 184.5 153.9 180.3 165.3 Q 174.6 181.2 178.05 190.2 A 16.343 16.343 0 0 0 180.614 194.751 Q 183.805 198.644 189.211 199.131 A 17.726 17.726 0 0 0 190.8 199.2 A 21.896 21.896 0 0 0 197.226 198.146 Q 203.382 196.252 210.9 190.95 A 73.681 73.681 0 0 0 219.802 183.455 Q 224.034 179.329 228.377 174.053 A 170.127 170.127 0 0 0 235.2 165.15 Q 244.995 151.508 253.883 131.43 A 312.382 312.382 0 0 0 258.9 119.4 Z">
        <animate attributeName="stroke-dasharray" from="3000 3000" to="3000 0" dur="3s" begin="0.5s" fill="freeze" calcMode="ease-in-out"/>
        <animate attributeName="stroke-dashoffset" from="3000" to="0" dur="3s" begin="0.5s" fill="freeze" calcMode="ease-in-out"/>
        <animate attributeName="fill" from="transparent" to="#00e1ff" dur="1s" begin="3s" fill="freeze"/>
      </path>

      <!-- i -->
      <path class="letter" d="M 282.9 208.5 L 330.9 77.1 A 4.8 4.8 0 0 1 331.528 75.89 Q 332.9 74.024 335.85 74.85 Q 339.6 75.9 343.8 79.35 A 36.729 36.729 0 0 1 348.566 84.017 A 31.27 31.27 0 0 1 350.7 86.85 A 14.518 14.518 0 0 1 351.686 88.554 Q 352.569 90.373 352.569 91.955 A 5.19 5.19 0 0 1 352.2 93.9 L 304.5 225.3 A 4.8 4.8 0 0 1 303.872 226.51 Q 302.5 228.376 299.55 227.55 A 17.297 17.297 0 0 1 296.404 226.301 Q 294.922 225.55 293.358 224.468 A 36.305 36.305 0 0 1 291.45 223.05 Q 287.1 219.6 284.55 215.55 A 15.913 15.913 0 0 1 283.556 213.735 Q 282.208 210.807 282.9 208.5 Z M 344.4 38.4 L 351 20.4 A 4.8 4.8 0 0 1 351.628 19.19 Q 353 17.324 355.95 18.15 A 17.297 17.297 0 0 1 359.096 19.4 Q 360.578 20.151 362.143 21.233 A 36.305 36.305 0 0 1 364.05 22.65 Q 368.4 26.1 370.95 30.15 A 15.913 15.913 0 0 1 371.944 31.965 Q 373.292 34.893 372.6 37.2 L 366 55.2 A 4.8 4.8 0 0 1 365.372 56.41 Q 364 58.276 361.05 57.45 Q 357.3 56.4 353.1 52.95 A 36.729 36.729 0 0 1 348.335 48.284 A 31.27 31.27 0 0 1 346.2 45.45 Q 343.5 41.4 344.4 38.4 Z">
        <animate attributeName="stroke-dasharray" from="1500 1500" to="1500 0" dur="2.5s" begin="1s" fill="freeze" calcMode="ease-in-out"/>
        <animate attributeName="stroke-dashoffset" from="1500" to="0" dur="2.5s" begin="1s" fill="freeze" calcMode="ease-in-out"/>
        <animate attributeName="fill" from="transparent" to="#00e1ff" dur="1s" begin="3.2s" fill="freeze"/>
      </path>

      <!-- t -->
      <path class="letter" d="M 371.4 75 L 388.2 75 L 404.4 30.3 A 4.8 4.8 0 0 1 405.028 29.09 Q 406.4 27.224 409.35 28.05 A 17.297 17.297 0 0 1 412.496 29.3 Q 413.978 30.051 415.543 31.133 A 36.305 36.305 0 0 1 417.45 32.55 Q 421.8 36 424.35 40.05 A 15.913 15.913 0 0 1 425.344 41.865 Q 426.692 44.793 426 47.1 L 415.8 75 L 429.3 75 A 12.172 12.172 0 0 1 434.288 76.111 Q 435.994 76.871 437.7 78.15 Q 441.9 81.3 444.75 85.5 A 25.164 25.164 0 0 1 446.236 87.962 Q 446.894 89.222 447.268 90.37 A 9.503 9.503 0 0 1 447.75 92.85 A 4.489 4.489 0 0 1 447.755 93.064 Q 447.755 96 443.7 96 L 408.3 96 L 375.6 185.7 A 170.027 170.027 0 0 1 375.273 186.827 Q 374.574 189.211 373.05 194.25 A 93.716 93.716 0 0 0 371.094 201.934 A 118.806 118.806 0 0 0 369.9 208.5 Q 368.7 216.3 369.9 222.6 Q 370.759 226.897 368.201 227.365 A 3.329 3.329 0 0 1 367.95 227.4 Q 365.1 227.7 360.75 225.45 A 29.928 29.928 0 0 1 354.441 221.038 A 35.382 35.382 0 0 1 352.65 219.3 Q 349.358 215.876 348.494 212.221 A 11.504 11.504 0 0 1 348.3 211.2 Q 346.5 202.2 347.7 193.5 Q 348.795 185.565 350.638 179.377 A 66.344 66.344 0 0 1 351 178.2 Q 352.934 172.122 353.85 169.352 A 201.281 201.281 0 0 1 354 168.9 L 381 94.5 Q 376.852 92.564 372.958 88.334 A 39.261 39.261 0 0 1 372.3 87.6 A 32.725 32.725 0 0 1 370.061 84.759 Q 369.035 83.284 368.375 81.904 A 12.439 12.439 0 0 1 367.35 78.9 A 5.863 5.863 0 0 1 367.271 78.36 Q 366.993 75.492 370.199 75.072 A 9.29 9.29 0 0 1 371.4 75 Z">
        <animate attributeName="stroke-dasharray" from="2000 2000" to="2000 0" dur="2.5s" begin="1.5s" fill="freeze" calcMode="ease-in-out"/>
        <animate attributeName="stroke-dashoffset" from="2000" to="0" dur="2.5s" begin="1.5s" fill="freeze" calcMode="ease-in-out"/>
        <animate attributeName="fill" from="transparent" to="#00e1ff" dur="1s" begin="3.4s" fill="freeze"/>
      </path>

      <!-- y -->
      <path class="letter" d="M 480.6 92.4 L 474.3 197.4 L 549.3 76.5 Q 551.1 73.8 555 75.3 Q 558.9 76.8 562.95 80.4 A 33.073 33.073 0 0 1 566.745 84.352 A 26.092 26.092 0 0 1 569.25 88.05 Q 571.219 91.594 570.317 93.875 A 3.854 3.854 0 0 1 570 94.5 L 474.9 248.1 A 144.061 144.061 0 0 1 465.533 261.094 A 173.702 173.702 0 0 1 459.75 267.9 Q 450.9 277.8 439.35 284.4 Q 427.8 291 413.4 291 A 9.695 9.695 0 0 1 410.135 290.397 Q 408.811 289.925 407.417 289.082 A 21.983 21.983 0 0 1 405.6 287.85 Q 401.4 284.7 398.4 280.5 Q 395.477 276.408 395.117 273.312 A 7.861 7.861 0 0 1 395.1 273.15 Q 394.8 270 399.3 270 A 35.537 35.537 0 0 0 410.069 268.251 Q 414.339 266.897 418.769 264.497 A 61.004 61.004 0 0 0 419.4 264.15 Q 429.9 258.3 439.05 249 A 122.096 122.096 0 0 0 448.347 238.443 A 98.663 98.663 0 0 0 454.2 230.1 L 465.3 212.1 A 27.585 27.585 0 0 1 461.081 209.29 Q 459.176 207.768 457.271 205.789 A 49.848 49.848 0 0 1 456.3 204.75 A 27.069 27.069 0 0 1 454.227 202.195 Q 451.8 198.764 451.8 195.9 L 459 78.6 A 7.496 7.496 0 0 1 459.124 77.17 Q 459.646 74.499 462.364 74.694 A 5.614 5.614 0 0 1 462.45 74.7 A 11.189 11.189 0 0 1 465.377 75.39 Q 466.631 75.856 467.969 76.624 A 25.623 25.623 0 0 1 470.1 78 Q 474.3 81 477.45 85.05 A 20.816 20.816 0 0 1 479.043 87.389 Q 479.773 88.65 480.161 89.83 A 8.221 8.221 0 0 1 480.6 92.4 Z">
        <animate attributeName="stroke-dasharray" from="3000 3000" to="3000 0" dur="3s" begin="2s" fill="freeze" calcMode="ease-in-out"/>
        <animate attributeName="stroke-dashoffset" from="3000" to="0" dur="3s" begin="2s" fill="freeze" calcMode="ease-in-out"/>
        <animate attributeName="fill" from="transparent" to="#00e1ff" dur="1s" begin="3.6s" fill="freeze"/>
      </path>

      <!-- a -->
      <path class="letter" d="M 661.2 116.4 L 675.6 77.1 A 4.634 4.634 0 0 1 676.256 75.862 Q 677.655 74.031 680.7 74.85 A 17.326 17.326 0 0 1 684.296 76.295 Q 685.883 77.135 687.515 78.346 A 32.954 32.954 0 0 1 688.8 79.35 A 36.729 36.729 0 0 1 693.566 84.017 A 31.27 31.27 0 0 1 695.7 86.85 A 14.518 14.518 0 0 1 696.686 88.554 Q 697.569 90.373 697.569 91.955 A 5.19 5.19 0 0 1 697.2 93.9 L 670.2 168.3 A 103.634 103.634 0 0 0 665.626 184.176 A 81.745 81.745 0 0 0 664.05 197.55 Q 663.6 211.5 667.2 220.8 A 16.536 16.536 0 0 1 667.573 221.905 Q 668.203 224.03 667.838 225.302 A 2.319 2.319 0 0 1 666.6 226.8 Q 664.2 228 660 226.2 A 29.912 29.912 0 0 1 654.825 223.317 A 37.878 37.878 0 0 1 651.75 220.95 A 19.569 19.569 0 0 1 648.177 217.004 A 16.43 16.43 0 0 1 646.2 213 Q 642 201 641.7 188.1 A 139.745 139.745 0 0 1 631.582 203.769 A 103.609 103.609 0 0 1 619.65 217.2 A 42.972 42.972 0 0 1 607.07 225.569 A 38.356 38.356 0 0 1 591.9 228.6 A 51.586 51.586 0 0 1 583.428 227.944 Q 578.615 227.142 574.704 225.359 A 27.218 27.218 0 0 1 570.6 223.05 Q 562.5 217.5 558.75 208.65 A 58.942 58.942 0 0 1 554.52 192.332 A 67.723 67.723 0 0 1 554.25 189.45 Q 553.5 179.1 555.15 169.05 Q 556.626 160.06 558.942 153.111 A 71.467 71.467 0 0 1 559.5 151.5 A 131.777 131.777 0 0 1 568.285 132.938 A 156.697 156.697 0 0 1 573.45 124.5 Q 582.3 111 593.7 99.75 A 106.673 106.673 0 0 1 610.084 86.409 A 93.162 93.162 0 0 1 618 81.75 A 60.576 60.576 0 0 1 632.11 76.386 A 50.519 50.519 0 0 1 643.8 75 A 12.172 12.172 0 0 1 648.788 76.111 Q 650.494 76.871 652.2 78.15 Q 656.4 81.3 659.4 85.5 A 24.991 24.991 0 0 1 660.93 87.902 Q 662.365 90.491 662.535 92.615 A 7.264 7.264 0 0 1 662.55 92.85 A 4.489 4.489 0 0 1 662.555 93.064 Q 662.555 96 658.5 96 A 50.443 50.443 0 0 0 633.911 102.476 A 59.405 59.405 0 0 0 633.15 102.9 Q 621 109.8 610.65 120.9 Q 600.3 132 592.8 144.45 A 160.218 160.218 0 0 0 585.763 157.382 A 122.32 122.32 0 0 0 581.1 168.3 Q 576 182.7 575.55 190.35 Q 575.139 197.337 576.73 200.57 A 6.83 6.83 0 0 0 577.05 201.15 Q 578.228 203.053 579.571 203.971 A 4.792 4.792 0 0 0 581.4 204.75 A 181.907 181.907 0 0 0 581.967 204.856 Q 583.748 205.184 584.071 205.199 A 0.603 0.603 0 0 0 584.1 205.2 Q 591 205.2 600.15 198 Q 609.3 190.8 618.9 179.7 Q 628.5 168.6 637.35 156.15 Q 646.2 143.7 652.5 133.05 Q 658.8 122.4 661.2 116.4 Z">
        <animate attributeName="stroke-dasharray" from="3000 3000" to="3000 0" dur="3s" begin="2.5s" fill="freeze" calcMode="ease-in-out"/>
        <animate attributeName="stroke-dashoffset" from="3000" to="0" dur="3s" begin="2.5s" fill="freeze" calcMode="ease-in-out"/>
        <animate attributeName="fill" from="transparent" to="#00e1ff" dur="1s" begin="3.8s" fill="freeze"/>
      </path>

      <!-- K -->
      <path class="letter" d="M 850.5 118.2 L 862.8 223.2 Q 863.346 227.018 860.792 227.489 A 4.049 4.049 0 0 1 860.25 227.55 A 7.04 7.04 0 0 1 859.915 227.558 Q 856.901 227.558 852.831 225.05 A 29.109 29.109 0 0 1 852.75 225 Q 848.4 222.3 844.95 218.4 A 20.835 20.835 0 0 1 842.782 215.506 Q 841.278 213.053 840.9 210.6 L 831.6 129.3 Q 815.7 141 799.8 149.7 A 4.004 4.004 0 0 1 798.422 150.171 Q 796.961 150.4 794.944 149.794 A 16.097 16.097 0 0 1 793.8 149.4 L 766.2 225.3 A 4.634 4.634 0 0 1 765.544 226.538 Q 764.145 228.37 761.1 227.55 A 17.326 17.326 0 0 1 757.504 226.106 Q 755.918 225.266 754.285 224.055 A 32.954 32.954 0 0 1 753 223.05 A 36.729 36.729 0 0 1 748.235 218.384 A 31.27 31.27 0 0 1 746.1 215.55 A 14.518 14.518 0 0 1 745.114 213.847 Q 744.231 212.028 744.231 210.446 A 5.19 5.19 0 0 1 744.6 208.5 L 811.8 23.4 A 4.634 4.634 0 0 1 812.456 22.162 Q 813.855 20.331 816.9 21.15 A 17.326 17.326 0 0 1 820.496 22.595 Q 822.083 23.435 823.715 24.646 A 32.954 32.954 0 0 1 825 25.65 A 36.729 36.729 0 0 1 829.766 30.317 A 31.27 31.27 0 0 1 831.9 33.15 A 14.518 14.518 0 0 1 832.886 34.854 Q 833.769 36.673 833.769 38.255 A 5.19 5.19 0 0 1 833.4 40.2 L 806.4 114.3 A 376.805 376.805 0 0 0 833.01 93.987 A 477.532 477.532 0 0 0 854.1 75.3 A 482.54 482.54 0 0 0 882.956 45.687 A 601.899 601.899 0 0 0 902.7 22.5 Q 904.305 20.361 907.816 21.44 A 12.299 12.299 0 0 1 908.7 21.75 A 23.198 23.198 0 0 1 913.249 24.183 A 31.657 31.657 0 0 1 916.95 27.15 Q 920.864 30.774 922.956 34.538 A 22.148 22.148 0 0 1 923.1 34.8 A 11.907 11.907 0 0 1 923.721 36.132 Q 924.882 39.124 923.4 41.1 A 644.148 644.148 0 0 1 897.896 70.194 A 547.356 547.356 0 0 1 886.35 82.2 A 506.044 506.044 0 0 1 863.463 103.927 A 422.605 422.605 0 0 1 849.9 115.5 A 9.757 9.757 0 0 1 850.277 116.626 Q 850.431 117.206 850.478 117.732 A 5.17 5.17 0 0 1 850.5 118.2 Z">
        <animate attributeName="stroke-dasharray" from="4000 4000" to="4000 0" dur="3.5s" begin="3s" fill="freeze" calcMode="ease-in-out"/>
        <animate attributeName="stroke-dashoffset" from="4000" to="0" dur="3.5s" begin="3s" fill="freeze" calcMode="ease-in-out"/>
        <animate attributeName="fill" from="transparent" to="#00e1ff" dur="1s" begin="4s" fill="freeze"/>
      </path>

      <!-- u -->
      <path class="letter" d="M 1026.3 93.9 L 978.6 225.3 A 3.962 3.962 0 0 1 977.816 226.617 Q 976.814 227.7 975 227.7 A 8.243 8.243 0 0 1 972.584 227.302 Q 970.423 226.637 967.778 224.861 A 33.601 33.601 0 0 1 966.9 224.25 A 30.508 30.508 0 0 1 960.315 217.886 A 28.335 28.335 0 0 1 959.1 216.15 Q 956.165 211.601 956.963 208.631 A 4.684 4.684 0 0 1 957 208.5 L 964.2 188.7 A 167.485 167.485 0 0 1 952.929 202.524 Q 947.048 208.954 941.144 213.783 A 82.6 82.6 0 0 1 934.05 219 A 82.287 82.287 0 0 1 924.918 224.221 Q 920.157 226.524 915.79 227.694 A 33.21 33.21 0 0 1 907.2 228.9 A 38.984 38.984 0 0 1 897.543 227.793 Q 885.549 224.724 881.25 213.15 Q 876.394 200.076 882.184 179.25 A 132.043 132.043 0 0 1 885 170.4 L 919.2 77.1 A 3.118 3.118 0 0 1 919.907 75.722 Q 920.843 74.7 922.8 74.7 A 9.178 9.178 0 0 1 925.812 75.248 Q 928.193 76.075 930.9 78.15 Q 935.4 81.6 938.55 86.1 A 16.984 16.984 0 0 1 939.728 88.028 Q 941.435 91.328 940.5 93.9 L 912.6 170.4 Q 907.8 183.6 911.4 190.95 A 13.787 13.787 0 0 0 914.608 195.284 Q 917.326 197.688 921.295 198.176 A 17.238 17.238 0 0 0 923.4 198.3 Q 931.453 198.3 942.402 190.993 A 80.005 80.005 0 0 0 943.35 190.35 A 68.891 68.891 0 0 0 952.097 183.101 Q 956.237 179.1 960.451 173.968 A 156.61 156.61 0 0 0 967.05 165.3 A 135.31 135.31 0 0 0 976.551 149.624 Q 980.72 141.65 984.58 132.189 A 274.568 274.568 0 0 0 989.1 120.3 L 1005 77.1 A 3.118 3.118 0 0 1 1005.707 75.722 Q 1006.643 74.7 1008.6 74.7 A 9.178 9.178 0 0 1 1011.612 75.248 Q 1013.993 76.075 1016.7 78.15 Q 1021.2 81.6 1024.35 86.1 A 16.984 16.984 0 0 1 1025.528 88.028 Q 1027.235 91.328 1026.3 93.9 Z">
        <animate attributeName="stroke-dasharray" from="3000 3000" to="3000 0" dur="3s" begin="3.5s" fill="freeze" calcMode="ease-in-out"/>
        <animate attributeName="stroke-dashoffset" from="3000" to="0" dur="3s" begin="3.5s" fill="freeze" calcMode="ease-in-out"/>
        <animate attributeName="fill" from="transparent" to="#00e1ff" dur="1s" begin="4.5s" fill="freeze"/>
      </path>

      <!-- m -->
      <path class="letter" d="M 1078.2 93.9 L 1072.2 110.1 A 173.118 173.118 0 0 1 1081.599 98.276 Q 1086.598 92.556 1091.495 88.184 A 77.249 77.249 0 0 1 1099.05 82.2 A 71.748 71.748 0 0 1 1106.521 77.65 Q 1115.003 73.219 1121.941 73.2 A 21.817 21.817 0 0 1 1122 73.2 A 17.159 17.159 0 0 1 1136.005 79.833 A 26.266 26.266 0 0 1 1139.1 84.75 Q 1144.661 96.019 1141.656 117.14 A 130.806 130.806 0 0 1 1141.5 118.2 A 199.072 199.072 0 0 1 1151.76 103.755 Q 1156.935 97.157 1162.056 92.037 A 85.553 85.553 0 0 1 1171.05 84.15 A 79.703 79.703 0 0 1 1178.962 78.857 Q 1188.113 73.553 1195.698 73.222 A 22.997 22.997 0 0 1 1196.7 73.2 A 17.876 17.876 0 0 1 1205.489 75.341 Q 1208.813 77.176 1211.377 80.584 A 24.721 24.721 0 0 1 1212.3 81.9 A 27.652 27.652 0 0 1 1215.639 89.37 Q 1217.76 96.651 1217.407 107.052 A 91.987 91.987 0 0 1 1217.4 107.25 A 91.174 91.174 0 0 1 1215.867 120.469 Q 1214.613 127.26 1212.36 134.958 A 216.529 216.529 0 0 1 1208.1 147.9 L 1179.9 225.3 A 3.962 3.962 0 0 1 1179.116 226.617 Q 1178.114 227.7 1176.3 227.7 A 8.1 8.1 0 0 1 1173.872 227.293 Q 1171.739 226.621 1169.174 224.842 A 31.68 31.68 0 0 1 1168.35 224.25 Q 1163.7 220.8 1160.55 216.15 A 19.093 19.093 0 0 1 1159.448 214.325 Q 1157.674 210.945 1158.57 208.578 A 4.488 4.488 0 0 1 1158.6 208.5 L 1186.5 131.1 Q 1190.996 119.2 1189.897 111.962 A 15.57 15.57 0 0 0 1189.5 110.1 Q 1187.548 103.128 1181.447 102.637 A 11.817 11.817 0 0 0 1180.5 102.6 A 15.371 15.371 0 0 0 1175.633 103.472 Q 1170.303 105.258 1163.55 110.7 A 65.632 65.632 0 0 0 1156.534 117.35 Q 1153.135 121.04 1149.639 125.715 A 164.393 164.393 0 0 0 1142.55 136.05 Q 1131.6 153.3 1121.4 181.2 L 1105.2 225.3 A 3.962 3.962 0 0 1 1104.416 226.617 Q 1103.414 227.7 1101.6 227.7 A 8.1 8.1 0 0 1 1099.172 227.293 Q 1097.039 226.621 1094.474 224.842 A 31.68 31.68 0 0 1 1093.65 224.25 Q 1089 220.8 1085.85 216.15 A 19.093 19.093 0 0 1 1084.748 214.325 Q 1082.974 210.945 1083.87 208.578 A 4.488 4.488 0 0 1 1083.9 208.5 L 1111.8 131.1 A 72.474 72.474 0 0 0 1113.666 125.528 Q 1116.412 115.974 1114.65 110.1 A 14.026 14.026 0 0 0 1113.181 106.732 Q 1110.841 102.955 1106.361 102.631 A 11.92 11.92 0 0 0 1105.5 102.6 Q 1099.899 102.6 1091.813 108.434 A 69.998 69.998 0 0 0 1088.85 110.7 A 66.848 66.848 0 0 0 1081.817 117.35 Q 1078.401 121.04 1074.872 125.715 A 168.655 168.655 0 0 0 1067.7 136.05 A 162.052 162.052 0 0 0 1059.502 150.485 Q 1055.508 158.369 1051.638 167.719 A 345.375 345.375 0 0 0 1046.4 181.2 L 1030.2 225.3 A 3.962 3.962 0 0 1 1029.416 226.617 Q 1028.414 227.7 1026.6 227.7 A 8.1 8.1 0 0 1 1024.172 227.293 Q 1022.039 226.621 1019.474 224.842 A 31.68 31.68 0 0 1 1018.65 224.25 Q 1014 220.8 1010.85 216.15 A 19.093 19.093 0 0 1 1009.748 214.325 Q 1007.974 210.945 1008.87 208.578 A 4.488 4.488 0 0 1 1008.9 208.5 L 1056.6 77.1 A 3.962 3.962 0 0 1 1057.385 75.784 Q 1058.386 74.7 1060.2 74.7 A 9.178 9.178 0 0 1 1063.212 75.248 Q 1065.593 76.075 1068.3 78.15 Q 1072.8 81.6 1076.1 86.1 A 17.21 17.21 0 0 1 1077.324 88.003 Q 1079.139 91.319 1078.2 93.9 Z">
        <animate attributeName="stroke-dasharray" from="5000 5000" to="5000 0" dur="4s" begin="4s" fill="freeze" calcMode="ease-in-out"/>
        <animate attributeName="stroke-dashoffset" from="5000" to="0" dur="4s" begin="4s" fill="freeze" calcMode="ease-in-out"/>
        <animate attributeName="fill" from="transparent" to="#00e1ff" dur="1s" begin="5.5s" fill="freeze"/>
      </path>

      <!-- a2 -->
      <path class="letter" d="M 1327.2 116.4 L 1341.6 77.1 A 4.634 4.634 0 0 1 1342.256 75.862 Q 1343.655 74.031 1346.7 74.85 A 17.326 17.326 0 0 1 1350.296 76.295 Q 1351.883 77.135 1353.515 78.346 A 32.954 32.954 0 0 1 1354.8 79.35 A 36.729 36.729 0 0 1 1359.566 84.017 A 31.27 31.27 0 0 1 1361.7 86.85 A 14.518 14.518 0 0 1 1362.686 88.554 Q 1363.569 90.373 1363.569 91.955 A 5.19 5.19 0 0 1 1363.2 93.9 L 1336.2 168.3 A 103.634 103.634 0 0 0 1331.626 184.176 A 81.745 81.745 0 0 0 1330.05 197.55 Q 1329.6 211.5 1333.2 220.8 A 16.536 16.536 0 0 1 1333.573 221.905 Q 1334.203 224.03 1333.838 225.302 A 2.319 2.319 0 0 1 1332.6 226.8 Q 1330.2 228 1326 226.2 A 29.912 29.912 0 0 1 1320.825 223.317 A 37.878 37.878 0 0 1 1317.75 220.95 A 19.569 19.569 0 0 1 1314.177 217.004 A 16.43 16.43 0 0 1 1312.2 213 Q 1308 201 1307.7 188.1 A 139.745 139.745 0 0 1 1297.582 203.769 A 103.609 103.609 0 0 1 1285.65 217.2 A 42.972 42.972 0 0 1 1273.07 225.569 A 38.356 38.356 0 0 1 1257.9 228.6 A 51.586 51.586 0 0 1 1249.428 227.944 Q 1244.615 227.142 1240.704 225.359 A 27.218 27.218 0 0 1 1236.6 223.05 Q 1228.5 217.5 1224.75 208.65 A 58.942 58.942 0 0 1 1220.52 192.332 A 67.723 67.723 0 0 1 1220.25 189.45 Q 1219.5 179.1 1221.15 169.05 Q 1222.626 160.06 1224.942 153.111 A 71.467 71.467 0 0 1 1225.5 151.5 A 131.777 131.777 0 0 1 1234.285 132.938 A 156.697 156.697 0 0 1 1239.45 124.5 Q 1248.3 111 1259.7 99.75 A 106.673 106.673 0 0 1 1276.084 86.409 A 93.162 93.162 0 0 1 1284 81.75 A 60.576 60.576 0 0 1 1298.11 76.386 A 50.519 50.519 0 0 1 1309.8 75 A 12.172 12.172 0 0 1 1314.788 76.111 Q 1316.494 76.871 1318.2 78.15 Q 1322.4 81.3 1325.4 85.5 A 24.991 24.991 0 0 1 1326.93 87.902 Q 1328.365 90.491 1328.535 92.615 A 7.264 7.264 0 0 1 1328.55 92.85 A 4.489 4.489 0 0 1 1328.555 93.064 Q 1328.555 96 1324.5 96 A 50.443 50.443 0 0 0 1299.911 102.476 A 59.405 59.405 0 0 0 1299.15 102.9 Q 1287 109.8 1276.65 120.9 Q 1266.3 132 1258.8 144.45 A 160.218 160.218 0 0 0 1251.763 157.382 A 122.32 122.32 0 0 0 1247.1 168.3 Q 1242 182.7 1241.55 190.35 Q 1241.139 197.337 1242.73 200.57 A 6.83 6.83 0 0 0 1243.05 201.15 Q 1244.228 203.053 1245.571 203.971 A 4.792 4.792 0 0 0 1247.4 204.75 A 181.907 181.907 0 0 0 1247.967 204.856 Q 1249.748 205.184 1250.071 205.199 A 0.603 0.603 0 0 0 1250.1 205.2 Q 1257 205.2 1266.15 198 Q 1275.3 190.8 1284.9 179.7 Q 1294.5 168.6 1303.35 156.15 Q 1312.2 143.7 1318.5 133.05 Q 1324.8 122.4 1327.2 116.4 Z">
        <animate attributeName="stroke-dasharray" from="3000 3000" to="3000 0" dur="3s" begin="4.5s" fill="freeze" calcMode="ease-in-out"/>
        <animate attributeName="stroke-dashoffset" from="3000" to="0" dur="3s" begin="4.5s" fill="freeze" calcMode="ease-in-out"/>
        <animate attributeName="fill" from="transparent" to="#00e1ff" dur="1s" begin="6s" fill="freeze"/>
      </path>

      <!-- r -->
      <path class="letter" d="M 1418.4 93.9 L 1401.3 140.4 A 298.773 298.773 0 0 1 1426.533 106.932 A 272.168 272.168 0 0 1 1430.4 102.6 A 148.949 148.949 0 0 1 1445.223 88.349 A 108.339 108.339 0 0 1 1462.5 76.5 A 5.213 5.213 0 0 1 1465.075 75.848 Q 1466.56 75.848 1468.3 76.581 A 13.58 13.58 0 0 1 1469.1 76.95 A 27.018 27.018 0 0 1 1474.474 80.528 A 32.45 32.45 0 0 1 1476.45 82.35 A 23.38 23.38 0 0 1 1478.882 85.178 Q 1480.105 86.872 1480.805 88.601 A 13.556 13.556 0 0 1 1481.1 89.4 A 7.408 7.408 0 0 1 1481.328 90.238 Q 1481.939 93.181 1479.3 94.5 A 178.845 178.845 0 0 0 1460.117 106.758 A 221.973 221.973 0 0 0 1448.55 115.8 Q 1433.1 128.7 1419 144.45 Q 1404.9 160.2 1393.5 177.75 A 217.778 217.778 0 0 0 1378.892 203.884 A 190.702 190.702 0 0 0 1374.9 213 L 1370.4 225.3 A 4.8 4.8 0 0 1 1369.772 226.51 Q 1368.4 228.376 1365.45 227.55 Q 1361.7 226.5 1357.5 223.05 A 36.729 36.729 0 0 1 1352.735 218.384 A 31.27 31.27 0 0 1 1350.6 215.55 Q 1347.9 211.5 1348.8 208.5 L 1396.8 77.1 A 4.8 4.8 0 0 1 1397.428 75.89 Q 1398.8 74.024 1401.75 74.85 Q 1405.5 75.9 1409.7 79.35 A 36.729 36.729 0 0 1 1414.466 84.017 A 31.27 31.27 0 0 1 1416.6 86.85 Q 1419.3 90.9 1418.4 93.9 Z">
        <animate attributeName="stroke-dasharray" from="3000 3000" to="3000 0" dur="3s" begin="5s" fill="freeze" calcMode="ease-in-out"/>
        <animate attributeName="stroke-dashoffset" from="3000" to="0" dur="3s" begin="5s" fill="freeze" calcMode="ease-in-out"/>
        <animate attributeName="fill" from="transparent" to="#00e1ff" dur="1s" begin="6.5s" fill="freeze"/>
      </path>

      <!-- L -->
      <path class="letter" d="M 1599.9 40.2 L 1539.3 206.4 L 1590.3 206.4 A 12.172 12.172 0 0 1 1595.288 207.511 Q 1596.994 208.271 1598.7 209.55 Q 1602.9 212.7 1605.9 216.9 A 24.991 24.991 0 0 1 1607.43 219.302 Q 1608.865 221.891 1609.035 224.015 A 7.264 7.264 0 0 1 1609.05 224.25 A 4.489 4.489 0 0 1 1609.055 224.464 Q 1609.055 227.4 1605 227.4 L 1529.7 227.4 A 9.844 9.844 0 0 1 1526.4 226.787 Q 1525.05 226.308 1523.611 225.452 A 25.05 25.05 0 0 1 1521 223.65 A 35.947 35.947 0 0 1 1515.363 218.205 A 31.406 31.406 0 0 1 1513.2 215.25 Q 1510.497 211.06 1511.204 208.696 A 3.087 3.087 0 0 1 1511.4 208.2 L 1511.4 207.6 L 1578.3 23.4 A 4.8 4.8 0 0 1 1578.928 22.19 Q 1580.3 20.324 1583.25 21.15 A 17.297 17.297 0 0 1 1586.396 22.4 Q 1587.878 23.151 1589.443 24.233 A 36.305 36.305 0 0 1 1591.35 25.65 Q 1595.7 29.1 1598.25 33.15 A 15.913 15.913 0 0 1 1599.244 34.965 Q 1600.592 37.893 1599.9 40.2 Z">
        <animate attributeName="stroke-dasharray" from="2500 2500" to="2500 0" dur="2.5s" begin="5.5s" fill="freeze" calcMode="ease-in-out"/>
        <animate attributeName="stroke-dashoffset" from="2500" to="0" dur="2.5s" begin="5.5s" fill="freeze" calcMode="ease-in-out"/>
        <animate attributeName="fill" from="transparent" to="#00e1ff" dur="1s" begin="6.8s" fill="freeze"/>
      </path>

      <!-- o -->
      <path class="letter" fill="none" fill-rule="evenodd" d="M 1646.61 227.925 A 70.483 70.483 0 0 0 1658.7 228.9 Q 1685.4 228.9 1705.65 210.3 Q 1717.199 199.692 1725.967 184.694 A 154.385 154.385 0 0 0 1737.6 159.6 Q 1742.7 146.1 1743.3 130.95 Q 1743.9 115.8 1739.1 102.75 Q 1734.3 89.7 1723.05 81.45 A 36.623 36.623 0 0 0 1717.05 77.889 Q 1711.663 75.338 1704.99 74.175 A 70.483 70.483 0 0 0 1692.9 73.2 A 66.558 66.558 0 0 0 1669.469 77.32 A 71.223 71.223 0 0 0 1646.1 91.95 Q 1625.7 110.7 1614 142.8 Q 1609.2 156.3 1608.45 171.3 Q 1607.7 186.3 1612.5 199.35 Q 1617.3 212.4 1628.55 220.65 A 36.623 36.623 0 0 0 1634.551 224.211 Q 1639.937 226.762 1646.61 227.925 Z M 1644 207.9 A 56.853 56.853 0 0 0 1674.439 198.883 A 79.792 79.792 0 0 0 1685.7 190.35 A 101.87 101.87 0 0 0 1705.761 165.169 A 139.552 139.552 0 0 0 1716 142.8 Q 1723.55 121.829 1722.108 109.067 A 31.516 31.516 0 0 0 1721.85 107.25 A 21.957 21.957 0 0 0 1720.188 101.695 Q 1717.281 95.459 1710.497 94.412 A 18.986 18.986 0 0 0 1707.6 94.2 A 56.853 56.853 0 0 0 1677.162 103.217 A 79.792 79.792 0 0 0 1665.9 111.75 A 100.769 100.769 0 0 0 1646.261 136.304 A 139.708 139.708 0 0 0 1635.6 159.6 A 139.748 139.748 0 0 0 1632.257 169.912 Q 1628.05 184.992 1629.75 194.85 A 21.957 21.957 0 0 0 1631.412 200.406 Q 1634.319 206.641 1641.103 207.689 A 18.986 18.986 0 0 0 1644 207.9 Z">
        <animate attributeName="stroke-dasharray" from="3000 3000" to="3000 0" dur="3s" begin="6s" fill="freeze" calcMode="ease-in-out"/>
        <animate attributeName="stroke-dashoffset" from="3000" to="0" dur="3s" begin="6s" fill="freeze" calcMode="ease-in-out"/>
        <animate attributeName="fill" from="transparent" to="#00e1ff" dur="1s" begin="7.2s" fill="freeze"/>
      </path>

      <!-- t2 -->
      <path class="letter" d="M 1771.8 75 L 1788.6 75 L 1804.8 30.3 A 4.8 4.8 0 0 1 1805.428 29.09 Q 1806.8 27.224 1809.75 28.05 A 17.297 17.297 0 0 1 1812.896 29.3 Q 1814.378 30.051 1815.943 31.133 A 36.305 36.305 0 0 1 1817.85 32.55 Q 1822.2 36 1824.75 40.05 A 15.913 15.913 0 0 1 1825.744 41.865 Q 1827.092 44.793 1826.4 47.1 L 1816.2 75 L 1829.7 75 A 12.172 12.172 0 0 1 1834.688 76.111 Q 1836.394 76.871 1838.1 78.15 Q 1842.3 81.3 1845.15 85.5 A 25.164 25.164 0 0 1 1846.636 87.962 Q 1847.294 89.222 1847.668 90.37 A 9.503 9.503 0 0 1 1848.15 92.85 A 4.489 4.489 0 0 1 1848.155 93.064 Q 1848.155 96 1844.1 96 L 1808.7 96 L 1776 185.7 A 170.027 170.027 0 0 1 1775.673 186.827 Q 1774.974 189.211 1773.45 194.25 A 93.716 93.716 0 0 0 1771.494 201.934 A 118.806 118.806 0 0 0 1770.3 208.5 Q 1769.1 216.3 1770.3 222.6 Q 1771.159 226.897 1768.601 227.365 A 3.329 3.329 0 0 1 1768.35 227.4 Q 1765.5 227.7 1761.15 225.45 A 29.928 29.928 0 0 1 1754.841 221.038 A 35.382 35.382 0 0 1 1753.05 219.3 Q 1749.758 215.876 1748.894 212.221 A 11.504 11.504 0 0 1 1748.7 211.2 Q 1746.9 202.2 1748.1 193.5 Q 1749.195 185.565 1751.038 179.377 A 66.344 66.344 0 0 1 1751.4 178.2 Q 1753.334 172.122 1754.25 169.352 A 201.281 201.281 0 0 1 1754.4 168.9 L 1781.4 94.5 Q 1777.252 92.564 1773.358 88.334 A 39.261 39.261 0 0 1 1772.7 87.6 A 32.725 32.725 0 0 1 1770.461 84.759 Q 1769.435 83.284 1768.775 81.904 A 12.439 12.439 0 0 1 1767.75 78.9 A 5.863 5.863 0 0 1 1767.671 78.36 Q 1767.393 75.492 1770.599 75.072 A 9.29 9.29 0 0 1 1771.8 75 Z">
        <animate attributeName="stroke-dasharray" from="2000 2000" to="2000 0" dur="2.5s" begin="6.5s" fill="freeze" calcMode="ease-in-out"/>
        <animate attributeName="stroke-dashoffset" from="2000" to="0" dur="2.5s" begin="6.5s" fill="freeze" calcMode="ease-in-out"/>
        <animate attributeName="fill" from="transparent" to="#00e1ff" dur="1s" begin="7.5s" fill="freeze"/>
      </path>

      <!-- t3 -->
      <path class="letter" d="M 1859.4 75 L 1876.2 75 L 1892.4 30.3 A 4.8 4.8 0 0 1 1893.028 29.09 Q 1894.4 27.224 1897.35 28.05 A 17.297 17.297 0 0 1 1900.496 29.3 Q 1901.978 30.051 1903.543 31.133 A 36.305 36.305 0 0 1 1905.45 32.55 Q 1909.8 36 1912.35 40.05 A 15.913 15.913 0 0 1 1913.344 41.865 Q 1914.692 44.793 1914 47.1 L 1903.8 75 L 1917.3 75 A 12.172 12.172 0 0 1 1922.288 76.111 Q 1923.994 76.871 1925.7 78.15 Q 1929.9 81.3 1932.75 85.5 A 25.164 25.164 0 0 1 1934.236 87.962 Q 1934.894 89.222 1935.268 90.37 A 9.503 9.503 0 0 1 1935.75 92.85 A 4.489 4.489 0 0 1 1935.755 93.064 Q 1935.755 96 1931.7 96 L 1896.3 96 L 1863.6 185.7 A 170.027 170.027 0 0 1 1863.273 186.827 Q 1862.574 189.211 1861.05 194.25 A 93.716 93.716 0 0 0 1859.094 201.934 A 118.806 118.806 0 0 0 1857.9 208.5 Q 1856.7 216.3 1857.9 222.6 Q 1858.759 226.897 1856.201 227.365 A 3.329 3.329 0 0 1 1855.95 227.4 Q 1853.1 227.7 1848.75 225.45 A 29.928 29.928 0 0 1 1842.441 221.038 A 35.382 35.382 0 0 1 1840.65 219.3 Q 1837.358 215.876 1836.494 212.221 A 11.504 11.504 0 0 1 1836.3 211.2 Q 1834.5 202.2 1835.7 193.5 Q 1836.795 185.565 1838.638 179.377 A 66.344 66.344 0 0 1 1839 178.2 Q 1840.934 172.122 1841.85 169.352 A 201.281 201.281 0 0 1 1842 168.9 L 1869 94.5 Q 1864.852 92.564 1860.958 88.334 A 39.261 39.261 0 0 1 1860.3 87.6 A 32.725 32.725 0 0 1 1858.061 84.759 Q 1857.035 83.284 1856.375 81.904 A 12.439 12.439 0 0 1 1855.35 78.9 A 5.863 5.863 0 0 1 1855.271 78.36 Q 1854.993 75.492 1858.199 75.072 A 9.29 9.29 0 0 1 1859.4 75 Z">
        <animate attributeName="stroke-dasharray" from="2000 2000" to="2000 0" dur="2.5s" begin="7s" fill="freeze" calcMode="ease-in-out"/>
        <animate attributeName="stroke-dashoffset" from="2000" to="0" dur="2.5s" begin="7s" fill="freeze" calcMode="ease-in-out"/>
        <animate attributeName="fill" from="transparent" to="#00e1ff" dur="1s" begin="7.8s" fill="freeze"/>
      </path>

      <!-- i2 -->
      <path class="letter" d="M 1903.2 208.5 L 1951.2 77.1 A 4.8 4.8 0 0 1 1951.828 75.89 Q 1953.2 74.024 1956.15 74.85 Q 1959.9 75.9 1964.1 79.35 A 36.729 36.729 0 0 1 1968.866 84.017 A 31.27 31.27 0 0 1 1971 86.85 A 14.518 14.518 0 0 1 1971.986 88.554 Q 1972.869 90.373 1972.869 91.955 A 5.19 5.19 0 0 1 1972.5 93.9 L 1924.8 225.3 A 4.8 4.8 0 0 1 1924.172 226.51 Q 1922.8 228.376 1919.85 227.55 A 17.297 17.297 0 0 1 1916.704 226.301 Q 1915.222 225.55 1913.658 224.468 A 36.305 36.305 0 0 1 1911.75 223.05 Q 1907.4 219.6 1904.85 215.55 A 15.913 15.913 0 0 1 1903.856 213.735 Q 1902.508 210.807 1903.2 208.5 Z M 1964.7 38.4 L 1971.3 20.4 A 4.8 4.8 0 0 1 1971.928 19.19 Q 1973.3 17.324 1976.25 18.15 A 17.297 17.297 0 0 1 1979.396 19.4 Q 1980.878 20.151 1982.443 21.233 A 36.305 36.305 0 0 1 1984.35 22.65 Q 1988.7 26.1 1991.25 30.15 A 15.913 15.913 0 0 1 1992.244 31.965 Q 1993.592 34.893 1992.9 37.2 L 1986.3 55.2 A 4.8 4.8 0 0 1 1985.672 56.41 Q 1984.3 58.276 1981.35 57.45 Q 1977.6 56.4 1973.4 52.95 A 36.729 36.729 0 0 1 1968.635 48.284 A 31.27 31.27 0 0 1 1966.5 45.45 Q 1963.8 41.4 1964.7 38.4 Z">
        <animate attributeName="stroke-dasharray" from="1500 1500" to="1500 0" dur="2.5s" begin="7.5s" fill="freeze" calcMode="ease-in-out"/>
        <animate attributeName="stroke-dashoffset" from="1500" to="0" dur="2.5s" begin="7.5s" fill="freeze" calcMode="ease-in-out"/>
        <animate attributeName="fill" from="transparent" to="#00e1ff" dur="1s" begin="8.2s" fill="freeze"/>
      </path>

    </g>
  </g>
</svg>
